<svg id="e4w6r8zID5v1" xmlns="http://www.w3.org/2000/svg" xmlns:xlink="http://www.w3.org/1999/xlink" viewBox="0 0 1600 1200" shape-rendering="geometricPrecision" text-rendering="geometricPrecision"><style><![CDATA[#e4w6r8zID5v61_to {animation: e4w6r8zID5v61_to__to 10000ms linear 1 normal forwards}@keyframes e4w6r8zID5v61_to__to { 0% {offset-distance: 0%} 28% {offset-distance: 0%;animation-timing-function: cubic-bezier(0.25,1,0.25,1)} 58% {offset-distance: 100%} 100% {offset-distance: 100%}} #e4w6r8zID5v61_tr {animation: e4w6r8zID5v61_tr__tr 10000ms linear 1 normal forwards}@keyframes e4w6r8zID5v61_tr__tr { 0% {transform: rotate(20.316376deg)} 28% {transform: rotate(20.316376deg)} 58% {transform: rotate(0deg)} 100% {transform: rotate(0deg)}} #e4w6r8zID5v61_ts {animation: e4w6r8zID5v61_ts__ts 10000ms linear 1 normal forwards}@keyframes e4w6r8zID5v61_ts__ts { 0% {transform: scale(5.905851,5.905851)} 28% {transform: scale(5.905851,5.905851)} 58% {transform: scale(1.329535,1.329535)} 100% {transform: scale(1.329535,1.329535)}} #e4w6r8zID5v64 {animation: e4w6r8zID5v64_c_o 10000ms linear 1 normal forwards}@keyframes e4w6r8zID5v64_c_o { 0% {opacity: 1} 17% {opacity: 1} 20% {opacity: 0} 100% {opacity: 0}}]]></style><defs><filter id="e4w6r8zID5v3-filter" x="-400%" width="600%" y="-400%" height="600%"><feComponentTransfer id="e4w6r8zID5v3-filter-invert-0" result="result"><feFuncR id="e4w6r8zID5v3-filter-invert-0-R" type="table" tableValues="1 0"/><feFuncG id="e4w6r8zID5v3-filter-invert-0-G" type="table" tableValues="1 0"/><feFuncB id="e4w6r8zID5v3-filter-invert-0-B" type="table" tableValues="1 0"/></feComponentTransfer><feColorMatrix id="e4w6r8zID5v3-filter-hue-rotate-0" type="hueRotate" values="-360" result="result"/><feColorMatrix id="e4w6r8zID5v3-filter-sepia-0" type="matrix" values="1 0 0 0 0 0 1 0 0 0 0 0 1 0 0 0 0 0 1 0" result="result"/></filter></defs><rect width="1644.322495" height="1240.323043" rx="0" ry="0" transform="translate(-21.555244-24.99716)" fill="#0d1515" stroke-width="0"/><g transform="translate(0 1)"><line x1="-80.023272" y1="-235.91594" x2="80.023272" y2="235.91594" transform="matrix(.941623-.0149 0.018444 1.165578 649.917491 164.997796)" fill="none" stroke="#f40202" stroke-width="3"/><line x1="-80.023272" y1="-235.91594" x2="80.023272" y2="235.91594" transform="matrix(.845417-.414904 0.590733 1.20369 425.917491 182.997796)" fill="none" stroke="#f40202" stroke-width="3"/><line x1="-80.023272" y1="-235.91594" x2="80.023272" y2="235.91594" transform="matrix(.794997 0.504832-.595231 0.937354 887.222915 172.447305)" fill="none" stroke="#f40202" stroke-width="3"/><line x1="-80.023272" y1="-235.91594" x2="80.023272" y2="235.91594" transform="matrix(.562619 0.827542-.96585 0.65665 1091.265643 212.845653)" fill="none" stroke="#f40202" stroke-width="3"/><line x1="-80.023272" y1="-235.91594" x2="80.023272" y2="235.91594" transform="matrix(.426198 1.010186-1.460903 0.616355 1311.50988 212.845653)" fill="none" stroke="#f40202" stroke-width="3"/><line x1="-80.023272" y1="-235.91594" x2="80.023272" y2="235.91594" transform="matrix(.273954 1.061635-1.535307 0.396185 1456.706658 253.381819)" fill="none" stroke="#f40202" stroke-width="3"/><line x1="-80.023272" y1="-235.91594" x2="80.023272" y2="235.91594" transform="matrix(.180059 1.081526-1.564073 0.260397 1535.211454 295.670151)" fill="none" stroke="#f40202" stroke-width="3"/><line x1="-80.023272" y1="-235.91594" x2="80.023272" y2="235.91594" transform="matrix(.105134 1.09136-1.578295 0.152042 1535.211454 352.670151)" fill="none" stroke="#f40202" stroke-width="3"/><line x1="-80.023272" y1="-235.91594" x2="80.023272" y2="235.91594" transform="matrix(.084835 1.093125-1.580847 0.122686 1535.211454 391.670151)" fill="none" stroke="#f40202" stroke-width="3"/><line x1="-80.023272" y1="-235.91594" x2="80.023272" y2="235.91594" transform="matrix(-.031602 1.095956-1.584942-.045702 1535.211454 416.670151)" fill="none" stroke="#f40202" stroke-width="3"/><line x1="-80.023272" y1="-235.91594" x2="80.023272" y2="235.91594" transform="matrix(.689244-.641731 1.127113 1.210564 277.917491 245.997796)" fill="none" stroke="#f40202" stroke-width="3"/><line x1="-80.023272" y1="-235.91594" x2="80.023272" y2="235.91594" transform="matrix(.592904-.73167 1.285079 1.041355 143.917491 280.997796)" fill="none" stroke="#f40202" stroke-width="3"/><line x1="-80.023272" y1="-235.91594" x2="80.023272" y2="235.91594" transform="matrix(.523593-.782768 1.374826 0.919621 42.917491 307.997796)" fill="none" stroke="#f40202" stroke-width="3"/><line x1="-80.023272" y1="-235.91594" x2="80.023272" y2="235.91594" transform="matrix(.473467-.814067 1.429798 0.831581 30.917491 355.997796)" fill="none" stroke="#f40202" stroke-width="3"/><line x1="-80.023272" y1="-235.91594" x2="80.023272" y2="235.91594" transform="matrix(.462308-.820456 1.441019 0.81198-40.082509 371.997796)" fill="none" stroke="#f40202" stroke-width="3"/><line x1="-80.023272" y1="-235.91594" x2="80.023272" y2="235.91594" transform="matrix(.462308-.820456 1.441019 0.81198-40.082509 397.997796)" fill="none" stroke="#f40202" stroke-width="3"/><line x1="-877.822661" y1="0" x2="877.822661" y2="0" transform="translate(812.443184 91.044629)" fill="none" stroke="#f61103" stroke-width="3"/><line x1="-984.79033" y1="0" x2="984.790331" y2="0" transform="translate(919.410854 163.805467)" fill="none" stroke="#f61103" stroke-width="3"/><line x1="-1064.029633" y1="0" x2="1064.029634" y2="0" transform="translate(966.454043 216.199782)" fill="none" stroke="#f61103" stroke-width="3"/><line x1="-992.153701" y1="0" x2="992.153701" y2="0" transform="translate(949.011725 261.892713)" fill="none" stroke="#f61103" stroke-width="3"/><line x1="-892.143929" y1="-1.415255" x2="892.143929" y2="1.415255" transform="translate(821.571531 292.268756)" fill="none" stroke="#f61103" stroke-width="3"/><line x1="-1033.910688" y1="0" x2="1033.910688" y2="0" transform="translate(968.531212 320.785632)" fill="none" stroke="#f61103" stroke-width="3"/><line x1="-1002.753158" y1="3.549164" x2="1002.753159" y2="-3.549164" transform="translate(932.180761 343.299037)" fill="none" stroke="#f61103" stroke-width="3"/><line x1="993.512416" y1="0" x2="-993.512415" y2="0" transform="translate(696.753429 362.726659)" fill="none" stroke="#f61103" stroke-width="3"/><line x1="967.730096" y1="-5.683353" x2="-967.730096" y2="5.683354" transform="translate(728.203906 387.900734)" fill="none" stroke="#f61103" stroke-width="3"/><line x1="920.877588" y1="0" x2="-920.877587" y2="0" transform="translate(774.030211 405.888406)" fill="none" stroke="#f61103" stroke-width="3"/><line x1="926.011982" y1="-0.264224" x2="-926.011982" y2="0.264224" transform="translate(769.92202 420.877867)" fill="none" stroke="#f61103" stroke-width="3"/><g transform="matrix(-1 0.000422-.000422-1 1613.556363 1189.698011)"><line x1="-80.023272" y1="-235.91594" x2="80.023272" y2="235.91594" transform="matrix(.941623-.0149 0.018444 1.165578 649.917491 164.997796)" fill="none" stroke="#f40202" stroke-width="3"/><line x1="-80.023272" y1="-235.91594" x2="80.023272" y2="235.91594" transform="matrix(.845417-.414904 0.590733 1.20369 425.917491 182.997796)" fill="none" stroke="#f40202" stroke-width="3"/><line x1="-80.023272" y1="-235.91594" x2="80.023272" y2="235.91594" transform="matrix(.794997 0.504832-.595231 0.937354 887.222915 172.447305)" fill="none" stroke="#f40202" stroke-width="3"/><line x1="-80.023272" y1="-235.91594" x2="80.023272" y2="235.91594" transform="matrix(.562619 0.827542-.96585 0.65665 1091.265643 212.845653)" fill="none" stroke="#f40202" stroke-width="3"/><line x1="-80.023272" y1="-235.91594" x2="80.023272" y2="235.91594" transform="matrix(.426198 1.010186-1.460903 0.616355 1311.50988 212.845653)" fill="none" stroke="#f40202" stroke-width="3"/><line x1="-80.023272" y1="-235.91594" x2="80.023272" y2="235.91594" transform="matrix(.273954 1.061635-1.535307 0.396185 1456.706658 253.381819)" fill="none" stroke="#f40202" stroke-width="3"/><line x1="-80.023272" y1="-235.91594" x2="80.023272" y2="235.91594" transform="matrix(.180059 1.081526-1.564073 0.260397 1535.211454 295.670151)" fill="none" stroke="#f40202" stroke-width="3"/><line x1="-80.023272" y1="-235.91594" x2="80.023272" y2="235.91594" transform="matrix(.105134 1.09136-1.578295 0.152042 1535.211454 352.670151)" fill="none" stroke="#f40202" stroke-width="3"/><line x1="-80.023272" y1="-235.91594" x2="80.023272" y2="235.91594" transform="matrix(.084835 1.093125-1.580847 0.122686 1535.211454 391.670151)" fill="none" stroke="#f40202" stroke-width="3"/><line x1="-80.023272" y1="-235.91594" x2="80.023272" y2="235.91594" transform="matrix(-.031602 1.095956-1.584942-.045702 1535.211454 416.670151)" fill="none" stroke="#f40202" stroke-width="3"/><line x1="-80.023272" y1="-235.91594" x2="80.023272" y2="235.91594" transform="matrix(.689244-.641731 1.127113 1.210564 277.917491 245.997796)" fill="none" stroke="#f40202" stroke-width="3"/><line x1="-80.023272" y1="-235.91594" x2="80.023272" y2="235.91594" transform="matrix(.592904-.73167 1.285079 1.041355 143.917491 280.997796)" fill="none" stroke="#f40202" stroke-width="3"/><line x1="-80.023272" y1="-235.91594" x2="80.023272" y2="235.91594" transform="matrix(.523593-.782768 1.374826 0.919621 42.917491 307.997796)" fill="none" stroke="#f40202" stroke-width="3"/><line x1="-80.023272" y1="-235.91594" x2="80.023272" y2="235.91594" transform="matrix(.473467-.814067 1.429798 0.831581 30.917491 355.997796)" fill="none" stroke="#f40202" stroke-width="3"/><line x1="-80.023272" y1="-235.91594" x2="80.023272" y2="235.91594" transform="matrix(.462308-.820456 1.441019 0.81198-40.082509 371.997796)" fill="none" stroke="#f40202" stroke-width="3"/><line x1="-80.023272" y1="-235.91594" x2="80.023272" y2="235.91594" transform="matrix(.462308-.820456 1.441019 0.81198-40.082509 397.997796)" fill="none" stroke="#f40202" stroke-width="3"/><line x1="-877.822661" y1="0" x2="877.822661" y2="0" transform="translate(812.443184 91.044629)" fill="none" stroke="#f61103" stroke-width="3"/><line x1="-984.79033" y1="0" x2="984.790331" y2="0" transform="translate(919.410854 163.805467)" fill="none" stroke="#f61103" stroke-width="3"/><line x1="-1064.029633" y1="0" x2="1064.029634" y2="0" transform="translate(966.454043 216.199782)" fill="none" stroke="#f61103" stroke-width="3"/><line x1="-992.153701" y1="0" x2="992.153701" y2="0" transform="translate(949.011725 261.892713)" fill="none" stroke="#f61103" stroke-width="3"/><line x1="-892.143929" y1="-1.415255" x2="892.143929" y2="1.415255" transform="translate(821.571531 292.268756)" fill="none" stroke="#f61103" stroke-width="3"/><line x1="-1033.910688" y1="0" x2="1033.910688" y2="0" transform="translate(968.531212 320.785632)" fill="none" stroke="#f61103" stroke-width="3"/><line x1="-1002.753158" y1="3.549164" x2="1002.753159" y2="-3.549164" transform="translate(932.180761 343.299037)" fill="none" stroke="#f61103" stroke-width="3"/><line x1="993.512416" y1="0" x2="-993.512415" y2="0" transform="translate(696.753429 362.726659)" fill="none" stroke="#f61103" stroke-width="3"/><line x1="967.730096" y1="-5.683353" x2="-967.730096" y2="5.683354" transform="translate(728.203906 387.900734)" fill="none" stroke="#f61103" stroke-width="3"/><line x1="920.877588" y1="0" x2="-920.877587" y2="0" transform="translate(774.030211 405.888406)" fill="none" stroke="#f61103" stroke-width="3"/><line x1="926.011982" y1="-0.264224" x2="-926.011982" y2="0.264224" transform="translate(769.92202 420.877867)" fill="none" stroke="#f61103" stroke-width="3"/></g></g><rect width="1644.322495" height="1367.03504" rx="0" ry="0" transform="matrix(.992381 0 0 0.252371-15.291197 422.653578)" fill="#0d1515" stroke-width="0"/><g id="e4w6r8zID5v61_to" style="offset-path:path('M3067.961077,1614.885485C2155.593968,1727.913583,-61.307487,1532.088329,916.110763,642.874794');offset-rotate:0deg"><g id="e4w6r8zID5v61_tr" transform="rotate(20.316376)"><g id="e4w6r8zID5v61_ts" transform="scale(5.905851,5.905851)"><g transform="translate(-539.707494,-203.402896)" clip-rule="evenodd"><g transform="matrix(174.442001 0 0 174.442001 279 371)" clip-rule="evenodd"><path d="M1.887,-0.977h-.194v-.201h.194v.201Zm.097-.225h-.285l-.249.176h-.329v-.036h.054l.233-.153h-.396v-.048h.972v.061Zm-.364.219h-.085v-.055h.085v.055Zm-.116-.292h-1.015l.347-.158h.322l.346.158Zm.383,1.191h-.389l.195-.151v-.633h.194v.784Zm-.602-1.1l-.115.079h-.346l-.116-.079h.577Zm.061.213h-.699v-.036h.699v.036Zm.535.079h-1.769v-.061h1.769v.061Zm-.571.037l-.091.054h-.444l-.091-.054h.626Zm-.328-.36h-.398l.22.153h.068v.036h-.328l-.249-.176h-.286v-.061h.973v.048Zm-.523.232h-.085v-.055h.085v.055Zm-.158.006h-.195v-.201h.195v.201Zm.194.893h-.389v-.784h.195v.633l.194.151Z" clip-rule="evenodd" fill="#c00000" stroke-linejoin="round" stroke-miterlimit="2"/></g></g></g></g></g><rect id="e4w6r8zID5v64" width="1644.322495" height="1240.323043" rx="0" ry="0" transform="translate(-21.555244-24.99716)" fill="#0d1515" stroke-width="0"/></svg>